<?xml version="1.0" standalone="no"?>
<!DOCTYPE svg PUBLIC "-//W3C//DTD SVG 1.1//EN" "http://www.w3.org/Graphics/SVG/1.1/DTD/svg11.dtd">
<!--Generator: Xara Designer (www.xara.com), SVG filter version: 6.0.0.4-->
<svg stroke-width="0.501" stroke-linejoin="bevel" fill-rule="evenodd" xmlns:xlink="http://www.w3.org/1999/xlink" xmlns="http://www.w3.org/2000/svg" version="1.1" overflow="visible" width="80.3pt" height="18.75pt" viewBox="0 0 80.3 18.75">
 <defs>
  <linearGradient id="LinearGradient" gradientUnits="userSpaceOnUse" x1="0" y1="0" x2="39.071" y2="0" gradientTransform="translate(35.329 14.204) rotate(-14.3186) skewX(22.543)">
   <stop offset="0" stop-color="#007fff"/>
   <stop offset="1" stop-color="#004da2"/>
  </linearGradient>
 </defs>
 <g id="Document" fill="none" stroke="black" font-family="Times New Roman" font-size="16" transform="scale(1 -1)">
  <g id="Spread" transform="translate(0 -18.75)">
   <g id="Layer 1">
    <path d="M 53.63,13.656 L 44.987,1.781 L 39.477,1.781 L 30.041,13.05 L 30.041,1.781 L 25.878,1.781 L 25.878,16.916 L 32.377,16.916 L 41.922,5.575 L 51.209,16.916 L 69.793,16.966 C 79.068,16.867 80.389,14.482 80.296,12.047 C 80.199,9.597 78.271,7.325 72.984,7.1 L 80.292,1.829 L 74.358,1.829 L 68.181,6.229 C 67.396,6.669 66.453,6.869 65.549,6.876 L 59.642,6.932 L 59.642,10.285 L 68.927,10.285 C 71.227,10.285 75.599,9.891 75.346,12.178 C 75.145,13.979 73.368,13.738 69.971,13.676 L 53.63,13.656 Z" stroke-width="1.725" stroke-linejoin="miter" stroke="none" marker-start="none" marker-end="none" stroke-miterlimit="79.8403193612775" fill="url(#LinearGradient)"/>
    <g id="Group" stroke="none" stroke-width="0.063" stroke-miterlimit="79.8403193612775">
     <path d="M 8.294,0 L 8.216,9.413 L 16.305,14.235 L 16.305,14.235 L 16.428,4.812 L 8.337,0 L 8.294,0 Z" fill="#ffd65b" stroke-linejoin="miter" marker-start="none" marker-end="none"/>
     <path d="M 8.337,0.004 L 0.118,4.604 L 0,14.022 L 0,14.022 L 8.216,9.419 L 8.337,0.004 Z" fill="#ecb103" stroke-linejoin="miter" marker-start="none" marker-end="none"/>
     <path d="M 8.131,18.75 L 16.346,14.187 L 8.255,9.372 L 0.038,13.976 L 8.131,18.75 Z" fill="#ffe38f" marker-start="none" marker-end="none"/>
    </g>
   </g>
  </g>
 </g>
</svg>
