<?xml version="1.0" standalone="no"?>
<!DOCTYPE svg PUBLIC "-//W3C//DTD SVG 1.1//EN" "http://www.w3.org/Graphics/SVG/1.1/DTD/svg11.dtd">
<!--Generator: Xara Designer (www.xara.com), SVG filter version: 6.0.0.4-->
<svg stroke-width="0.501" stroke-linejoin="bevel" fill-rule="evenodd" xmlns:xlink="http://www.w3.org/1999/xlink" xmlns="http://www.w3.org/2000/svg" version="1.1" overflow="visible" width="11.999pt" height="25.468pt" viewBox="0 0 11.999 25.468">
 <defs>
  <radialGradient id="RadialGradient" gradientUnits="userSpaceOnUse" cx="0" cy="0" r="3.472" gradientTransform="translate(4.292 22.379) rotate(-45.035) scale(1 1.00029)">
   <stop offset="0" stop-color="#7fff00"/>
   <stop offset="0.1" stop-color="#7afb00"/>
   <stop offset="0.2" stop-color="#75f700"/>
   <stop offset="0.3" stop-color="#6ff200"/>
   <stop offset="0.4" stop-color="#68ec00"/>
   <stop offset="0.5" stop-color="#5fe500"/>
   <stop offset="0.6" stop-color="#55dd00"/>
   <stop offset="0.7" stop-color="#47d200"/>
   <stop offset="0.8" stop-color="#36c500"/>
   <stop offset="0.9" stop-color="#20b200"/>
   <stop offset="1" stop-color="#009900"/>
  </radialGradient>
 </defs>
 <g id="Document" fill="none" stroke="black" font-family="Times New Roman" font-size="16" transform="scale(1 -1)">
  <g id="Spread" transform="translate(0 -25.468)">
   <g id="Layer 1">
    <g id="Group" stroke-linecap="round" stroke-width="0.755" stroke-miterlimit="79.8403193612775">
     <g id="Group_1" stroke="none">
      <path d="M 7.855,0.37 C 7.685,0.35 7.496,0.402 7.343,0.47 L 4.61,1.609 L 4.61,8.371 L 4.613,1.606 L 1.86,2.75 L 1.86,10.132 L 0.379,10.859 L 0.379,18.966 C 0.379,19.267 0.5,19.661 0.779,19.784 L 2.308,20.444 C 2.409,20.487 2.515,20.518 2.621,20.539 L 2.826,20.563 L 2.755,20.755 C 2.659,21.066 2.607,21.401 2.607,21.744 C 2.607,23.577 4.098,25.065 5.931,25.065 C 7.766,25.065 9.255,23.577 9.255,21.744 C 9.255,20.826 8.882,19.996 8.279,19.395 L 7.875,19.06 L 10.899,18.052 C 11.298,17.922 11.627,17.444 11.627,17.03 L 11.559,8.555 L 10.107,7.87 L 10.107,7.851 L 10.107,1.508 L 8.015,0.419 C 7.961,0.391 7.91,0.377 7.855,0.37 Z" fill="#ffffff" stroke-linejoin="round" marker-start="none" marker-end="none"/>
      <path d="M 0.374,18.973 L 0.374,10.874 L 1.853,10.139 L 1.853,2.752 L 5.125,1.411 L 5.125,1.411 L 7.468,0.421 L 7.454,8.146 L 8.819,7.518 C 8.863,7.5 8.927,7.564 8.927,7.612 L 8.895,15.327 C 8.895,15.634 8.738,16.027 8.449,16.135 L 0.374,18.973 Z" fill="#7fff00" stroke-linejoin="miter" marker-start="none" marker-end="none"/>
      <path d="M 11.623,17.148 L 9.748,16.204 C 9.503,16.08 9.279,15.797 9.279,15.519 L 9.299,7.173 C 9.296,6.964 9.152,6.865 9.045,6.912 L 7.981,7.362 L 7.964,0.389 L 10.108,1.515 L 10.097,7.866 L 11.569,8.54 L 11.623,17.148 Z" fill="#009900" stroke-linejoin="miter" marker-start="none" marker-end="none"/>
      <path d="M 2.538,20.526 L 0.645,19.58 L 8.553,16.724 C 8.811,16.635 9.127,16.64 9.375,16.754 L 11.255,17.806 L 3.398,20.521 C 3.141,20.607 2.791,20.637 2.538,20.526 Z" fill="#009900" stroke-linejoin="miter" marker-start="none" marker-end="none"/>
     </g>
     <path d="M 7.848,0.377 C 7.68,0.357 7.491,0.409 7.335,0.475 L 4.605,1.618 L 4.605,8.376 L 4.608,1.609 L 1.857,2.755 L 1.857,10.139 L 0.377,10.869 L 0.377,18.971 C 0.377,19.276 0.495,19.668 0.776,19.791 L 2.303,20.45 C 2.402,20.492 2.508,20.526 2.617,20.546 L 2.823,20.568 L 2.75,20.763 C 2.654,21.073 2.602,21.408 2.602,21.753 C 2.602,23.582 4.092,25.072 5.926,25.072 C 7.761,25.072 9.248,23.582 9.248,21.753 C 9.248,20.834 8.876,20.003 8.274,19.402 L 7.867,19.067 L 10.896,18.06 C 11.293,17.931 11.623,17.451 11.621,17.034 L 11.554,8.56 L 10.098,7.695 L 9.149,7.141 L 10.098,7.676 L 10.098,1.517 L 8.011,0.426 C 7.961,0.399 7.907,0.382 7.848,0.377 Z" stroke="#006633" stroke-linejoin="round" marker-start="none" marker-end="none"/>
     <path d="M 5.893,25.089 C 7.727,25.089 9.217,23.6 9.217,21.767 C 9.217,19.934 7.727,18.445 5.893,18.445 C 4.059,18.445 2.569,19.934 2.569,21.767 C 2.569,23.6 4.059,25.089 5.893,25.089 Z" stroke="#006633" stroke-linejoin="miter" marker-start="none" marker-end="none" fill="url(#RadialGradient)"/>
    </g>
   </g>
  </g>
 </g>
</svg>
