<?xml version="1.0" standalone="no"?>
<!DOCTYPE svg PUBLIC "-//W3C//DTD SVG 1.1//EN" "http://www.w3.org/Graphics/SVG/1.1/DTD/svg11.dtd">
<!--Generator: Xara Designer (www.xara.com), SVG filter version: 6.0.0.4-->
<svg stroke-width="0.501" stroke-linejoin="bevel" fill-rule="evenodd" xmlns:xlink="http://www.w3.org/1999/xlink" xmlns="http://www.w3.org/2000/svg" version="1.1" overflow="visible" width="11.884pt" height="25.22pt" viewBox="0 0 11.884 25.22">
 <defs>
  <radialGradient id="RadialGradient" gradientUnits="userSpaceOnUse" cx="0" cy="0" r="3.439" gradientTransform="translate(4.251 22.163) rotate(-45.0236) scale(1 1.00029)">
   <stop offset="0" stop-color="#ffffff"/>
   <stop offset="0.1" stop-color="#fdfdfd"/>
   <stop offset="0.2" stop-color="#fbfbfb"/>
   <stop offset="0.3" stop-color="#f9f9f9"/>
   <stop offset="0.4" stop-color="#f6f6f6"/>
   <stop offset="0.5" stop-color="#f2f2f2"/>
   <stop offset="0.6" stop-color="#eeeeee"/>
   <stop offset="0.7" stop-color="#e9e9e9"/>
   <stop offset="0.8" stop-color="#e2e2e2"/>
   <stop offset="0.9" stop-color="#d9d9d9"/>
   <stop offset="1" stop-color="#cccccc"/>
  </radialGradient>
 </defs>
 <g id="Document" fill="none" stroke="black" font-family="Times New Roman" font-size="16" transform="scale(1 -1)">
  <g id="Spread" transform="translate(0 -25.22)">
   <g id="Layer 1">
    <g id="Group" stroke-linecap="round" stroke-width="0.75" stroke-miterlimit="79.8403193612775">
     <g id="Group_1" stroke="none">
      <path d="M 7.78,0.369 C 7.613,0.349 7.425,0.4 7.274,0.468 L 4.567,1.596 L 4.567,8.292 L 4.57,1.592 L 1.844,2.725 L 1.844,10.036 L 0.379,10.756 L 0.379,18.784 C 0.379,19.082 0.497,19.472 0.773,19.594 L 2.288,20.247 C 2.386,20.29 2.492,20.321 2.597,20.342 L 2.802,20.365 L 2.73,20.556 C 2.635,20.864 2.584,21.195 2.584,21.535 C 2.584,23.351 4.059,24.824 5.875,24.824 C 7.691,24.824 9.167,23.351 9.167,21.535 C 9.167,20.626 8.798,19.803 8.2,19.209 L 7.8,18.877 L 10.795,17.878 C 11.191,17.75 11.516,17.277 11.515,16.867 L 11.447,8.474 L 10.009,7.795 L 10.009,7.777 L 10.009,1.496 L 7.938,0.417 C 7.887,0.389 7.835,0.375 7.78,0.369 Z" fill="#ffffff" stroke-linejoin="round" marker-start="none" marker-end="none"/>
      <path d="M 0.372,18.79 L 0.372,10.77 L 1.837,10.043 L 1.837,2.727 L 5.077,1.399 L 5.077,1.399 L 7.397,0.419 L 7.383,8.069 L 8.734,7.447 C 8.78,7.429 8.842,7.493 8.842,7.54 L 8.81,15.18 C 8.81,15.483 8.655,15.873 8.369,15.981 L 0.372,18.79 Z" fill="#f2f2f2" stroke-linejoin="miter" marker-start="none" marker-end="none"/>
      <path d="M 11.511,16.983 L 9.656,16.049 C 9.413,15.925 9.19,15.645 9.19,15.371 L 9.21,7.106 C 9.207,6.899 9.066,6.8 8.958,6.848 L 7.906,7.293 L 7.889,0.387 L 10.014,1.502 L 10,7.792 L 11.459,8.459 L 11.511,16.983 Z" fill="#cccccc" stroke-linejoin="miter" marker-start="none" marker-end="none"/>
      <path d="M 2.515,20.328 L 0.64,19.392 L 8.405,16.63 C 8.661,16.542 8.973,16.547 9.218,16.661 L 11.08,17.703 L 3.369,20.324 C 3.111,20.408 2.765,20.438 2.515,20.328 Z" fill="#cccccc" stroke-linejoin="miter" marker-start="none" marker-end="none"/>
     </g>
     <path d="M 7.774,0.375 C 7.609,0.355 7.42,0.408 7.268,0.473 L 4.562,1.604 L 4.562,8.297 L 4.566,1.596 L 1.841,2.73 L 1.841,10.043 L 0.375,10.765 L 0.375,18.789 C 0.375,19.09 0.492,19.478 0.77,19.601 L 2.283,20.253 C 2.38,20.295 2.485,20.328 2.594,20.348 L 2.799,20.37 L 2.726,20.563 C 2.632,20.87 2.58,21.202 2.58,21.543 C 2.58,23.355 4.054,24.831 5.87,24.831 C 7.686,24.831 9.161,23.355 9.161,21.543 C 9.161,20.633 8.791,19.811 8.198,19.215 L 7.793,18.884 L 10.793,17.887 C 11.185,17.758 11.511,17.284 11.509,16.871 L 11.443,8.479 L 10.002,7.631 L 9.037,7.074 L 10.002,7.613 L 10.002,1.504 L 7.934,0.424 C 7.885,0.397 7.833,0.381 7.774,0.375 Z" stroke="#000000" stroke-linejoin="round" marker-start="none" marker-end="none"/>
     <path d="M 5.835,24.843 C 7.651,24.843 9.126,23.369 9.126,21.554 C 9.126,19.739 7.651,18.265 5.835,18.265 C 4.019,18.265 2.544,19.739 2.544,21.554 C 2.544,23.369 4.019,24.843 5.835,24.843 Z" stroke="#000000" stroke-linejoin="miter" marker-start="none" marker-end="none" fill="url(#RadialGradient)"/>
    </g>
   </g>
  </g>
 </g>
</svg>
